<svg width="36" height="36" viewBox="0 0 36 36" fill="none" xmlns="http://www.w3.org/2000/svg">
<g id="la:facebook">
<path id="Vector" d="M18 4.5C10.557 4.5 4.5 10.557 4.5 18C4.5 25.443 10.557 31.5 18 31.5C25.443 31.5 31.5 25.443 31.5 18C31.5 10.557 25.443 4.5 18 4.5ZM18 6.75C24.2269 6.75 29.25 11.7731 29.25 18C29.2527 20.6932 28.287 23.2976 26.529 25.3379C24.771 27.3782 22.338 28.7184 19.674 29.1139V21.2805H22.878L23.3809 18.0259H19.674V16.2484C19.674 14.8984 20.1184 13.698 21.3818 13.698H23.4124V10.8585C23.0558 10.8101 22.3009 10.7055 20.8744 10.7055C17.8954 10.7055 16.1494 12.2783 16.1494 15.8625V18.0259H13.0871V21.2805H16.1494V29.0858C13.5222 28.6533 11.1344 27.3009 9.41253 25.2701C7.69066 23.2394 6.74695 20.6625 6.75 18C6.75 11.7731 11.7731 6.75 18 6.75Z" fill="black"/>
</g>
</svg>
