<svg width="27" height="28" viewBox="0 0 27 28" fill="none" xmlns="http://www.w3.org/2000/svg">
<path d="M20.0781 15.5049V20.4265H17.2253V15.8337C17.2253 14.6808 16.8126 13.8941 15.7795 13.8941C14.9914 13.8941 14.5215 14.4239 14.3151 14.9378C14.2406 15.1215 14.2206 15.3771 14.2206 15.6327V20.4265H11.3664C11.3664 20.4265 11.405 12.6493 11.3664 11.8439H14.2206V13.0594L14.202 13.0873H14.2206V13.0594C14.6 12.4736 15.2763 11.6416 16.7926 11.6416C18.6697 11.6416 20.0781 12.869 20.0781 15.5049ZM8.38043 7.70508C7.40462 7.70508 6.76562 8.34674 6.76562 9.18809C6.76562 10.0135 7.38599 10.6724 8.34316 10.6724H8.36179C9.35757 10.6724 9.9766 10.0121 9.9766 9.18809C9.95796 8.34674 9.35757 7.70508 8.38043 7.70508ZM6.93469 20.4265H9.78889V11.8439H6.93469V20.4265Z" fill="black"/>
<path d="M13.4219 24.65C16.2464 24.65 18.9553 23.5279 20.9526 21.5307C22.9498 19.5334 24.0719 16.8246 24.0719 14C24.0719 11.1754 22.9498 8.46658 20.9526 6.46931C18.9553 4.47205 16.2464 3.35 13.4219 3.35C10.5973 3.35 7.88845 4.47205 5.89119 6.46931C3.89393 8.46658 2.77187 11.1754 2.77187 14C2.77187 16.8246 3.89393 19.5334 5.89119 21.5307C7.88845 23.5279 10.5973 24.65 13.4219 24.65ZM13.4219 27.3125C6.06938 27.3125 0.109375 21.3525 0.109375 14C0.109375 6.64751 6.06938 0.6875 13.4219 0.6875C20.7744 0.6875 26.7344 6.64751 26.7344 14C26.7344 21.3525 20.7744 27.3125 13.4219 27.3125Z" fill="black"/>
</svg>
