<svg width="20" height="20" viewBox="0 0 20 20" fill="none" xmlns="http://www.w3.org/2000/svg">
<path fill-rule="evenodd" clip-rule="evenodd" d="M9.99996 1.04169C8.95015 1.04169 7.94333 1.45872 7.201 2.20106C6.45867 2.94339 6.04163 3.9502 6.04163 5.00002C6.04163 6.04983 6.45867 7.05665 7.201 7.79898C7.94333 8.54131 8.95015 8.95835 9.99996 8.95835C11.0498 8.95835 12.0566 8.54131 12.7989 7.79898C13.5413 7.05665 13.9583 6.04983 13.9583 5.00002C13.9583 3.9502 13.5413 2.94339 12.7989 2.20106C12.0566 1.45872 11.0498 1.04169 9.99996 1.04169ZM7.29163 5.00002C7.29163 4.28173 7.57697 3.59285 8.08488 3.08494C8.59279 2.57703 9.28167 2.29169 9.99996 2.29169C10.7183 2.29169 11.4071 2.57703 11.915 3.08494C12.423 3.59285 12.7083 4.28173 12.7083 5.00002C12.7083 5.71831 12.423 6.40719 11.915 6.9151C11.4071 7.42301 10.7183 7.70835 9.99996 7.70835C9.28167 7.70835 8.59279 7.42301 8.08488 6.9151C7.57697 6.40719 7.29163 5.71831 7.29163 5.00002ZM9.99996 10.2084C8.07246 10.2084 6.2958 10.6467 4.97996 11.3867C3.6833 12.1167 2.7083 13.2217 2.7083 14.5834V14.6684C2.70747 15.6367 2.70663 16.8517 3.77247 17.72C4.29663 18.1467 5.0308 18.4509 6.02246 18.6509C7.0158 18.8525 8.31163 18.9584 9.99996 18.9584C11.6883 18.9584 12.9833 18.8525 13.9783 18.6509C14.97 18.4509 15.7033 18.1467 16.2283 17.72C17.2941 16.8517 17.2925 15.6367 17.2916 14.6684V14.5834C17.2916 13.2217 16.3166 12.1167 15.0208 11.3867C13.7041 10.6467 11.9283 10.2084 9.99996 10.2084ZM3.9583 14.5834C3.9583 13.8742 4.47663 13.1042 5.59246 12.4767C6.68913 11.86 8.2458 11.4584 10.0008 11.4584C11.7541 11.4584 13.3108 11.86 14.4075 12.4767C15.5241 13.1042 16.0416 13.8742 16.0416 14.5834C16.0416 15.6734 16.0083 16.2867 15.4383 16.75C15.13 17.0017 14.6133 17.2475 13.73 17.4258C12.8491 17.6042 11.645 17.7084 9.99996 17.7084C8.35497 17.7084 7.14996 17.6042 6.26996 17.4258C5.38663 17.2475 4.86996 17.0017 4.56163 16.7509C3.99163 16.2867 3.9583 15.6734 3.9583 14.5834Z" fill="white"/>
</svg>
