<svg width="21" height="21" viewBox="0 0 21 21" fill="none" xmlns="http://www.w3.org/2000/svg">
<path d="M18.0313 18.1033L13.0753 13.1473C14.2662 11.7176 14.8601 9.8837 14.7334 8.02722C14.6067 6.17073 13.7691 4.43457 12.3949 3.1799C11.0207 1.92523 9.2157 1.24866 7.35538 1.29093C5.49505 1.3332 3.72264 2.09106 2.40685 3.40685C1.09106 4.72264 0.3332 6.49505 0.29093 8.35538C0.24866 10.2157 0.925232 12.0207 2.1799 13.3949C3.43457 14.7691 5.17073 15.6067 7.02722 15.7334C8.8837 15.8601 10.7176 15.2662 12.1473 14.0753L17.1033 19.0313L18.0313 18.1033ZM1.62503 8.53128C1.62503 7.36313 1.97143 6.22122 2.62041 5.24994C3.2694 4.27867 4.19183 3.52165 5.27106 3.07462C6.35028 2.62759 7.53783 2.51062 8.68353 2.73852C9.82923 2.96641 10.8816 3.52893 11.7076 4.35493C12.5336 5.18093 13.0962 6.23333 13.324 7.37903C13.5519 8.52473 13.435 9.71228 12.9879 10.7915C12.5409 11.8707 11.7839 12.7932 10.8126 13.4421C9.84134 14.0911 8.69943 14.4375 7.53128 14.4375C5.96538 14.4358 4.46411 13.813 3.35685 12.7057C2.24959 11.5985 1.62677 10.0972 1.62503 8.53128Z" fill="black" fill-opacity="0.6"/>
</svg>
