<svg width="27" height="27" viewBox="0 0 27 27" fill="none" xmlns="http://www.w3.org/2000/svg">
<path d="M24.4686 23.2757L18.0966 16.9037C19.6279 15.0654 20.3915 12.7076 20.2285 10.3207C20.0656 7.93378 18.9887 5.70157 17.2219 4.08842C15.4551 2.47528 13.1343 1.6054 10.7425 1.65975C8.35064 1.7141 6.07182 2.68849 4.38009 4.38021C2.68836 6.07194 1.71398 8.35076 1.65963 10.7426C1.60528 13.1345 2.47516 15.4552 4.0883 17.222C5.70145 18.9888 7.93366 20.0657 10.3206 20.2286C12.7075 20.3916 15.0653 19.628 16.9036 18.0968L23.2756 24.4688L24.4686 23.2757ZM3.3749 10.9688C3.3749 9.46687 3.82026 7.9987 4.65468 6.74991C5.48909 5.50112 6.67507 4.52781 8.06265 3.95306C9.45022 3.37831 10.9771 3.22793 12.4501 3.52093C13.9232 3.81394 15.2762 4.53717 16.3382 5.59918C17.4002 6.66118 18.1235 8.01426 18.4165 9.4873C18.7095 10.9603 18.5591 12.4872 17.9844 13.8748C17.4096 15.2623 16.4363 16.4483 15.1875 17.2827C13.9387 18.1172 12.4706 18.5625 10.9686 18.5625C8.95535 18.5603 7.02514 17.7595 5.60152 16.3359C4.1779 14.9123 3.37713 12.9821 3.3749 10.9688Z" fill="white"/>
</svg>
