<svg width="27" height="26" viewBox="0 0 27 26" fill="none" xmlns="http://www.w3.org/2000/svg">
<g id="et:twitter" clip-path="url(#clip0_56_142)">
<g id="Group">
<path id="Vector" d="M13.5 -0.0275879C6.0404 -0.0275879 -0.029541 5.81591 -0.029541 13C-0.029541 20.1842 6.0404 26.0277 13.5 26.0277C20.9596 26.0277 27.0295 20.1842 27.0295 13C27.0295 5.81591 20.9596 -0.0275879 13.5 -0.0275879ZM13.5 25.1599C6.53737 25.1599 0.873271 19.7048 0.873271 13C0.873271 6.29529 6.53737 0.840162 13.5 0.840162C20.4626 0.840162 26.1267 6.29529 26.1267 13C26.1267 19.7048 20.4626 25.1599 13.5 25.1599Z" fill="black"/>
<path id="Vector_2" d="M20.92 8.97491C21.0135 8.80809 21.0907 8.63318 21.1503 8.45247C21.1779 8.36865 21.1785 8.27874 21.1519 8.19461C21.1253 8.11048 21.0729 8.03609 21.0015 7.98125C20.9301 7.92641 20.8431 7.89372 20.7521 7.88748C20.661 7.88123 20.5701 7.90174 20.4913 7.94629C20.059 8.19362 19.591 8.37789 19.1025 8.4931C18.5096 7.97779 17.7395 7.69212 16.9408 7.69116C16.5069 7.69148 16.0775 7.77618 15.6784 7.94016C15.2793 8.10415 14.9187 8.34405 14.6182 8.64549C14.3177 8.94693 14.0835 9.30369 13.9296 9.6944C13.7757 10.0851 13.7054 10.5017 13.7228 10.9192C11.8252 10.6892 10.0924 9.76454 8.88387 8.3371C8.83756 8.28302 8.77839 8.2405 8.71137 8.21316C8.64435 8.18582 8.57146 8.17445 8.49891 8.18004C8.42635 8.18562 8.35627 8.20798 8.29461 8.24523C8.23295 8.28248 8.18154 8.3335 8.14474 8.39398C7.86801 8.85135 7.7176 9.36938 7.70785 9.89864C7.6981 10.4279 7.82934 10.9507 8.08905 11.4173C8.02536 11.4276 7.96416 11.4491 7.90849 11.4807C7.84027 11.5226 7.7841 11.5803 7.74517 11.6486C7.70624 11.7169 7.6858 11.7936 7.68574 11.8715C7.68574 12.7937 8.11183 13.6403 8.79865 14.2155L8.76912 14.244C8.71726 14.3005 8.68159 14.369 8.66561 14.4428C8.64963 14.5166 8.6539 14.5931 8.67799 14.6649C8.82121 15.0951 9.06034 15.49 9.37865 15.8219C9.69695 16.1538 10.0867 16.4148 10.5207 16.5864C9.6294 17.0051 8.63189 17.1684 7.64693 17.0569C7.54568 17.0469 7.44387 17.0696 7.35745 17.1214C7.27103 17.1731 7.20488 17.251 7.16937 17.3428C7.13526 17.4354 7.13462 17.5363 7.16755 17.6292C7.20048 17.7221 7.26504 17.8016 7.35077 17.8547C8.68981 18.6823 10.2476 19.122 11.8387 19.1214C17.0531 19.1214 20.1699 15.0427 20.1699 11.0996L20.169 10.9664C20.6744 10.5864 21.1133 10.1311 21.4692 9.6176C21.5231 9.53997 21.5496 9.44769 21.5448 9.35443C21.54 9.26116 21.5041 9.17187 21.4425 9.09977C21.3809 9.02767 21.2968 8.97659 21.2027 8.95411C21.1086 8.93162 21.0094 8.93891 20.92 8.97491ZM19.4476 10.4008C19.3864 10.4432 19.3372 10.4997 19.3044 10.5652C19.2717 10.6306 19.2565 10.7029 19.2603 10.7754C19.2654 10.8827 19.2679 10.9915 19.2679 11.0988C19.2679 14.6153 16.4894 18.2529 11.8395 18.2529C11.0102 18.2532 10.1867 18.1192 9.40362 17.8563C10.3415 17.6833 11.2226 17.296 11.9728 16.727C12.0459 16.6715 12.0993 16.5957 12.1259 16.5099C12.1525 16.4241 12.1509 16.3324 12.1214 16.2475C12.0918 16.1626 12.0357 16.0886 11.9608 16.0355C11.8859 15.9824 11.7958 15.9529 11.7028 15.951C11.339 15.9443 10.982 15.8554 10.6604 15.6914C10.3388 15.5274 10.0618 15.293 9.85165 15.0069C10.0651 14.9931 10.2744 14.959 10.4777 14.9062C10.5761 14.8808 10.6627 14.8241 10.7233 14.7452C10.784 14.6664 10.815 14.5701 10.8115 14.472C10.808 14.374 10.7701 14.28 10.7039 14.2054C10.6378 14.1307 10.5473 14.0799 10.4473 14.0612C10.0364 13.9807 9.65601 13.7941 9.34673 13.5215C9.03745 13.2489 8.81096 12.9004 8.69149 12.5134C8.91593 12.5678 9.14627 12.5995 9.37662 12.6068C9.5749 12.606 9.75883 12.489 9.82043 12.3054C9.88202 12.1217 9.80946 11.9194 9.64155 11.8122C9.24455 11.5574 8.93886 11.1909 8.76626 10.7627C8.59365 10.3344 8.56253 9.86528 8.67715 9.41935C10.1428 10.8675 12.1218 11.7298 14.2189 11.8341C14.3674 11.8349 14.4973 11.7837 14.5876 11.6789C14.6779 11.5741 14.7125 11.4352 14.6804 11.3019C14.565 10.8233 14.6166 10.3215 14.8273 9.87403C15.0379 9.42657 15.3958 9.05843 15.8457 8.82658C16.2955 8.59474 16.8121 8.51213 17.3156 8.59152C17.8191 8.67092 18.2813 8.9079 18.6309 9.26579C18.6833 9.31961 18.749 9.35971 18.8219 9.38231C18.8948 9.40491 18.9725 9.40927 19.0477 9.39497C19.1869 9.36816 19.3244 9.33729 19.4603 9.30154C19.399 9.34568 19.3354 9.38664 19.2696 9.42423C19.1821 9.47584 19.1155 9.55461 19.0807 9.64757C19.0459 9.74052 19.0451 9.84212 19.0783 9.9356C19.1115 10.0291 19.1768 10.1089 19.2634 10.1619C19.35 10.2148 19.4528 10.2378 19.5548 10.227L19.7083 10.2083C19.6238 10.2754 19.5368 10.3396 19.4476 10.4008Z" fill="black"/>
</g>
</g>
<defs>
<clipPath id="clip0_56_142">
<rect width="27" height="26" fill="white"/>
</clipPath>
</defs>
</svg>
