<svg width="32" height="33" viewBox="0 0 32 33" fill="none" xmlns="http://www.w3.org/2000/svg">
<g id="iconoir:youtube">
<g id="Group">
<path id="Vector" d="M18.6667 16.5L14 19.25V13.75L18.6667 16.5Z" fill="black" stroke="black" stroke-width="1.5" stroke-linecap="round" stroke-linejoin="round"/>
<path id="Vector_2" d="M2.66663 17.4722V15.5265C2.66663 11.5459 2.66663 9.55492 3.87329 8.2748C5.08129 6.9933 6.98263 6.9383 10.784 6.82692C12.584 6.77467 14.424 6.73755 16 6.73755C17.5746 6.73755 19.4146 6.77467 21.216 6.82692C25.0173 6.9383 26.9186 6.9933 28.1253 8.2748C29.3333 9.55492 29.3333 11.5473 29.3333 15.5265V17.4722C29.3333 21.4542 29.3333 23.4438 28.1266 24.7253C26.9186 26.0054 25.0186 26.0618 21.216 26.1718C19.416 26.2254 17.576 26.2626 16 26.2626C14.261 26.2572 12.5221 26.2269 10.784 26.1718C6.98263 26.0618 5.08129 26.0068 3.87329 24.7253C2.66663 23.4438 2.66663 21.4528 2.66663 17.4735V17.4722Z" stroke="black" stroke-width="1.5"/>
</g>
</g>
</svg>
